# xmcd
#
# Track frame offsets:
#	150
#	12750
#	23550
#	33450
#	49425
#	67815
#	86715
#	100815
#	123991
#	136449
#
# Disc length: 2053 seconds
#
# Revision: 2
# Processed by: cddbd v1.5.2PL0 Copyright (c) Steve Scherf et al.
# Submitted via: audiograbber 1.83.01
#
DISCID=7c08030a
DTITLE=Bon Iver - 22, A Million
DYEAR=2016
DGENRE=Jazz
TTITLE0=22 Over Soon
TTITLE1=10 Death Breast
TTITLE2=715 Creeks
TTITLE3=33 "GOD"
TTITLE4=29 #Strafford Apts
TTITLE5=666 Cross
TTITLE6=21 Moon Water
TTITLE7=8 Circle
TTITLE8=45
TTITLE9=1000000 Million
EXTD=YEAR: 2016
EXTT0=
EXTT1=
EXTT2=
EXTT3=
EXTT4=
EXTT5=
EXTT6=
EXTT7=
EXTT8=
EXTT9=
PLAYORDER=
